# xmcd CD database file
#
# Track frame offsets:
#	150
#	37502
#	55281
#	86462
#	117141
#	142818
#
# Disc length: 2450 seconds
#
# Revision: 0
# Processed by: cddbd v1.4PL0 Copyright (c) Steve Scherf et al.
# Submitted via: CDex 1.51
#
DISCID=3c099006
DTITLE=Tony O Connor  - Zodiac Collection Cancer
DYEAR=2001
DGENRE=New Age
TTITLE0=Cancer 1
TTITLE1=Cancer 2
TTITLE2=Cancer 3
TTITLE3=Cancer 4
TTITLE4=Cancer 5
TTITLE5=Cancer 6
EXTD=YEAR: 2001
EXTT0=
EXTT1=
EXTT2=
EXTT3=
EXTT4=
EXTT5=
PLAYORDER=
